<svg width="40" height="40" viewBox="0 0 40 40" fill="none" xmlns="http://www.w3.org/2000/svg">
<mask id="mask0_8901_2891" style="mask-type:luminance" maskUnits="userSpaceOnUse" x="0" y="0" width="40" height="40">
<path d="M39.9993 19.998C40.0104 17.3068 39.4945 14.6936 38.4659 12.2309C37.4675 9.84045 36.0317 7.6958 34.1984 5.8565C30.4334 2.07916 25.3949 0 20.0076 0C19.9987 0 19.9893 0 19.9804 0C17.2823 0.00348837 14.6688 0.529301 12.2126 1.56279C9.83525 2.56307 7.702 3.99581 5.87209 5.82134C2.11154 9.57273 0.0262384 14.5938 0.000238442 19.9597C-0.0127848 22.6489 0.507728 25.2622 1.5474 27.7268C2.54633 30.0949 3.98047 32.2279 5.81005 34.0665C7.63046 35.8959 9.74958 37.3411 12.1085 38.362C14.5445 39.4161 17.1241 39.9667 19.7756 39.9986C19.8574 39.9995 19.9387 40 20.0204 40C22.6641 40 25.2395 39.4854 27.6784 38.4694C30.1043 37.4588 32.2823 36.002 34.1519 34.1395C36.0008 32.2975 37.4488 30.1569 38.4555 27.7768C39.5008 25.3056 40.0202 22.6886 39.9993 19.998ZM32.1823 32.1623C28.9103 35.4221 24.599 37.2095 20.0202 37.2093C19.9501 37.2093 19.8792 37.2088 19.809 37.208C10.3796 37.0949 2.74531 29.3635 2.79084 19.9732C2.83754 10.3506 10.3897 2.80316 19.9841 2.79069C19.992 2.79069 19.9995 2.79069 20.0075 2.79069C24.6473 2.79069 28.9846 4.57869 32.2219 7.82659C35.4587 11.074 37.2296 15.3952 37.2086 19.9941C37.2086 20.0001 37.2086 20.006 37.2087 20.012C37.2462 24.5808 35.4611 28.8959 32.1823 32.1623ZM30.2752 20C30.2752 20.7706 29.6505 21.3953 28.8799 21.3953H11.12C10.3494 21.3953 9.72465 20.7706 9.72465 20C9.72465 19.2294 10.3494 18.6046 11.12 18.6046H28.8799C29.6505 18.6046 30.2752 19.2294 30.2752 20Z" fill="white"/>
</mask>
<g mask="url(#mask0_8901_2891)">
<path d="M66.5124 -26.5117H-26.5107V66.5114H66.5124V-26.5117Z" fill="#BCC1C6"/>
</g>
</svg>
